<svg viewBox="0 0 512 512" xmlns="http://www.w3.org/2000/svg" xmlns:xlink="http://www.w3.org/1999/xlink"><style>:root&gt;svg{display:none}:root&gt;svg:target{display:block}</style><svg fill="none" viewBox="0 0 55 17" id="arrow-right" xmlns="http://www.w3.org/2000/svg"><path d="M.724 8.5h53.552m-.362 0c-2.653-.236-8.322-2.125-9.77-7.792m9.77 7.792c-2.653.236-8.322 2.125-9.77 7.792" stroke="#000" stroke-linecap="round" stroke-linejoin="round"/></svg><svg fill="none" viewBox="0 0 18 18" id="copyright" xmlns="http://www.w3.org/2000/svg"><path d="M9 .25a8.75 8.75 0 10.001 17.501A8.75 8.75 0 009 .25zm0 16.016A7.267 7.267 0 019 1.734a7.267 7.267 0 010 14.532zM9.11 5.86c1.035 0 1.738.66 1.816 1.63a.156.156 0 00.156.144h1.107a.092.092 0 00.092-.092c0-1.693-1.336-2.879-3.178-2.879-2.146 0-3.384 1.45-3.384 3.844v1.021c0 2.377 1.238 3.807 3.385 3.807 1.836 0 3.177-1.149 3.177-2.762a.092.092 0 00-.091-.092h-1.11a.157.157 0 00-.156.143c-.082.9-.783 1.52-1.817 1.52-1.275 0-1.994-.936-1.994-2.61V8.508c.002-1.7.723-2.647 1.996-2.647z" fill="#000"/></svg><svg viewBox="0 0 512 512" id="customers-care" xmlns="http://www.w3.org/2000/svg"><path d="M512 346.5c0-74.629-50.285-139.832-121.195-159.48C386.348 83.14 300.457 0 195.5 0 87.7 0 0 87.7 0 195.5c0 35.133 9.352 69.34 27.11 99.371L.718 390.277l95.41-26.386c27.605 16.324 58.746 25.52 90.887 26.906C206.66 461.71 271.867 512 346.5 512c29.79 0 58.758-7.934 84.21-23.008l80.567 22.285-22.285-80.566C504.066 405.258 512 376.289 512 346.5zm-411.137-15.047l-57.117 15.8 15.8-57.116-3.6-5.633C38.972 257.949 30 227.172 30 195.5 30 104.242 104.242 30 195.5 30S361 104.242 361 195.5 286.758 361 195.5 361c-31.672 0-62.445-8.973-89.004-25.945zm367.39 136.8l-42.382-11.726-5.66 3.684C398.27 474.465 372.777 482 346.5 482c-58.656 0-110.2-37.926-128.46-92.309 89.82-10.355 161.296-81.832 171.655-171.656C444.075 236.301 482 287.844 482 346.5c0 26.277-7.535 51.77-21.79 73.71l-3.683 5.661zm0 0"/><path d="M180.5 271h30v30h-30zm45-121c0 8.52-3.469 16.383-9.766 22.145l-35.234 32.25V241h30v-23.395l25.488-23.328C248.387 182.93 255.5 166.793 255.5 150c0-33.086-26.914-60-60-60s-60 26.914-60 60h30c0-16.543 13.457-30 30-30s30 13.457 30 30zm0 0"/></svg><svg fill="none" viewBox="0 0 12 24" id="facebook" xmlns="http://www.w3.org/2000/svg"><path d="M7.745 23.247V13.002h3.457l.513-4.012h-3.97V6.435c0-1.157.323-1.95 1.984-1.95h2.105V.91A27.92 27.92 0 008.75.75c-3.055 0-5.152 1.865-5.152 5.29v2.944H.164v4.011h3.441v10.253h4.14z" fill="#000"/></svg><svg fill="none" viewBox="0 0 30 30" id="instagram" xmlns="http://www.w3.org/2000/svg"><path d="M26.184 10.381a8.16 8.16 0 00-.524-2.77 5.762 5.762 0 00-3.291-3.291 8.258 8.258 0 00-2.733-.525c-1.202-.054-1.584-.069-4.636-.069-3.053 0-3.444 0-4.638.069a8.258 8.258 0 00-2.73.525A5.759 5.759 0 004.34 7.61a8.193 8.193 0 00-.524 2.731c-.054 1.204-.07 1.585-.07 4.638 0 3.052 0 3.442.07 4.637.019.935.195 1.858.524 2.734a5.762 5.762 0 003.292 3.29 8.23 8.23 0 002.732.563c1.203.053 1.585.07 4.637.07 3.053 0 3.444 0 4.638-.07a8.237 8.237 0 002.732-.524 5.77 5.77 0 003.291-3.291 8.232 8.232 0 00.524-2.734c.054-1.203.07-1.584.07-4.638-.002-3.052-.002-3.44-.072-4.636zM14.992 20.752a5.777 5.777 0 01-5.778-5.778 5.777 5.777 0 019.864-4.087 5.778 5.778 0 01-4.086 9.865zm6.01-10.423a1.346 1.346 0 01-.517-2.592 1.348 1.348 0 11.516 2.592z" fill="#000"/><path d="M14.992 18.728a3.754 3.754 0 100-7.508 3.754 3.754 0 000 7.508z" fill="#000"/></svg></svg>